<?xml version="1.0" encoding="UTF-8"?>
<svg id="Layer_1" data-name="Layer 1" xmlns="http://www.w3.org/2000/svg" viewBox="0 0 363.23 83.65">
  <defs>
    <style>
      .cls-1 {
        fill: #d92128;
      }
    </style>
  </defs>
  <path class="cls-1" d="M67.31,21.45c-8.09-2.62-9.92-2.93-9.96-6.22v-.14c-.03-2.43,2.05-4.38,6.05-4.43,3.26-.04,6.16.91,9.65,3.01.82.49,1.64.77,2.66.76,2.71-.03,4.86-2.27,4.83-5.13-.02-2.14-1.21-3.6-2.36-4.33-4.33-2.77-9.35-4.32-15.12-4.25-18.19.21-25.59,24.08-.52,30.51,5.83,1.49,8.05,4.29,8.06,6.73,0,2.38-2.09,4.42-6.02,4.46-3.53.04-6.01-.93-8.92-2.61-7.17-4.15-14.42-24.01-19.22-34.32-.58-1.25-2.97-4.48-6.92-4.63-3.96.15-6.34,3.38-6.92,4.63l-10.23,23.1-8.29-9.16c-.33-.37-.78-.26-1,.25L.3,26.24c-.56,1.33-.3,3.22.58,4.19l7.2,7.96-3.07,7.01c-1.1,2.52.06,5.47,2.58,6.57,2.52,1.1,5.47-.06,6.57-2.58l3.08-7.03,10.73-.13c1.31-.02,2.87-1.11,3.47-2.42l2.95-6.51c.23-.5,0-.91-.49-.9l-12.34.15,6.4-14.66c.67-1.56,1.06-1.76,1.44-1.79.39-.03.77.18,1.46,1.79,5.61,13.11,11.62,26.63,19.63,30.95,6.01,3.24,14.62,4.92,21.09,2.47,13.69-5.19,15.69-23.4-4.26-29.86Z"/>
  <path class="cls-1" d="M358.14,41.51h-20.72V5.96c0-3.13-2.47-5.6-5.6-5.6s-5.6,2.47-5.6,5.6v40.13c0,3.13,2.47,5.6,5.6,5.6h26.32c2.84,0,5.09-2.25,5.09-5.09s-2.25-5.09-5.09-5.09Z"/>
  <path class="cls-1" d="M317,41.73h-23.05v-10.69h19.41c2.76,0,5.02-2.18,5.02-4.94s-2.25-5.02-5.02-5.02h-19.41v-10.32h22.68c2.76,0,5.02-2.18,5.02-4.94s-2.25-5.02-5.02-5.02h-28.21c-3.13,0-5.6,2.47-5.6,5.6v39.7c0,3.13,2.47,5.6,5.6,5.6h28.57c2.76,0,5.02-2.18,5.02-4.94s-2.25-5.02-5.02-5.02Z"/>
  <path class="cls-1" d="M248.96,48.06c1.16,2.76,3.27,4.43,6.33,4.43h.73c3.05,0,5.16-1.67,6.33-4.43l16.65-39.84c.29-.65.58-1.6.58-2.47,0-3.05-2.47-5.38-5.52-5.38-2.69,0-4.65,1.74-5.38,3.56l-12.87,33.3-12.72-32.93c-.87-2.25-2.76-3.93-5.67-3.93-3.13,0-5.6,2.4-5.6,5.53,0,.95.29,1.82.65,2.69l16.5,39.48Z"/>
  <path class="cls-1" d="M184.71,46.97c0-1.74-.73-2.91-1.82-4.29l-7.78-9.45c6.18-2.55,10.18-7.49,10.18-15.49v-.15c0-4.8-1.53-8.8-4.36-11.63-3.34-3.34-8.36-5.16-14.83-5.16h-17.67c-3.13,0-5.6,2.47-5.6,5.6v40.13c0,3.13,2.47,5.6,5.6,5.6s5.6-2.47,5.6-5.6v-11.12h8.94l10.91,13.81c1.31,1.67,2.98,2.91,5.53,2.91,2.69,0,5.31-2.04,5.31-5.16ZM173.95,18.32c0,4.29-3.13,7.2-8.58,7.2h-11.34v-14.61h11.12c5.45,0,8.8,2.47,8.8,7.27v.15Z"/>
  <path class="cls-1" d="M134.85.8h-32.72c-2.84,0-5.16,2.33-5.16,5.16s2.33,5.16,5.16,5.16h10.76v35.41c0,3.13,2.47,5.6,5.6,5.6s5.6-2.47,5.6-5.6V11.12h10.76c2.83,0,5.16-2.33,5.16-5.16s-2.33-5.16-5.16-5.16Z"/>
  <path class="cls-1" d="M238.75,46.75c0-.73-.22-1.45-.58-2.25l-17.74-40.06c-1.24-2.76-3.42-4.43-6.47-4.43h-.65c-3.05,0-5.31,1.67-6.54,4.43l-17.74,40.06c-.36.8-.65,1.6-.65,2.4,0,2.91,2.25,5.23,5.16,5.23,2.33,0,4.22-1.31,5.16-3.49l3.56-8.36h22.43c1.13,2.67,2.25,5.33,3.38,8,1.02,2.33,2.76,3.85,5.38,3.85,2.98,0,5.31-2.4,5.31-5.38ZM206.4,30.39l7.05-16.79c2.36,5.61,4.7,11.2,7.04,16.79-4.78,0-13.17,0-14.1,0Z"/>
  <path class="cls-1" d="M221.25,68.83c.27,0,.52-.11.69-.28.18-.17.29-.41.29-.68s-.11-.5-.3-.68c-.18-.17-.42-.28-.69-.28h-3.11v-2.82c0-.29-.12-.56-.32-.76-.2-.2-.47-.32-.76-.32s-.56.12-.75.31c-.19.2-.31.47-.31.77v2.82h-.88c-.26,0-.5.11-.68.29-.17.17-.28.41-.28.67s.11.5.29.67c.18.18.42.29.67.29h.88v7.42c0,1.24.35,2.12.95,2.72.67.67,1.63.96,2.73.96.37,0,.71-.03,1.02-.09.31-.06.6-.15.87-.26.18-.07.34-.19.45-.34.11-.15.17-.32.17-.52,0-.26-.11-.49-.28-.66-.17-.17-.4-.28-.66-.28-.06,0-.14.02-.24.05-.18.05-.47.12-.9.12-.6,0-1.09-.13-1.43-.43-.34-.3-.54-.79-.54-1.51v-7.18h3.11Z"/>
  <path class="cls-1" d="M268.73,66.79c-.3,0-.57.12-.75.31-.19.19-.3.47-.3.77v6.35c0,1.12-.38,2.06-1.01,2.72-.65.68-1.56,1.07-2.6,1.07s-1.88-.34-2.44-.96c-.58-.63-.88-1.55-.88-2.69v-6.49c0-.3-.12-.57-.32-.76-.2-.2-.47-.32-.77-.32s-.57.12-.75.31c-.19.19-.3.47-.3.77v6.95c0,1.55.47,2.85,1.34,3.76.84.88,2.06,1.39,3.59,1.39,1.11,0,1.99-.28,2.71-.74.58-.37,1.05-.86,1.44-1.4v.91c0,.3.12.57.31.76.19.2.46.32.75.32s.56-.12.75-.31c.19-.2.31-.47.31-.77v-10.88c0-.3-.12-.57-.31-.76-.19-.2-.46-.32-.75-.32Z"/>
  <path class="cls-1" d="M249.92,66.64c-1.9,0-3.54.74-4.73,1.93-1.22,1.22-1.95,2.92-1.95,4.75v.05c0,1.83.72,3.51,1.93,4.72,1.17,1.17,2.81,1.91,4.7,1.91s3.55-.74,4.74-1.93c1.23-1.22,1.96-2.92,1.96-4.75v-.05c0-1.83-.73-3.51-1.94-4.72-1.18-1.18-2.82-1.91-4.71-1.91ZM254.39,73.37c0,1.31-.48,2.5-1.29,3.35-.78.82-1.88,1.33-3.18,1.33s-2.38-.52-3.18-1.36c-.81-.86-1.31-2.05-1.31-3.37v-.05c0-1.31.47-2.51,1.29-3.37.78-.82,1.87-1.33,3.16-1.33s2.39.53,3.2,1.37c.82.86,1.32,2.06,1.32,3.38v.05Z"/>
  <path class="cls-1" d="M124.98,62.47h-11.77c-.28,0-.54.12-.73.31-.19.19-.31.45-.31.73s.12.53.3.71c.19.18.45.3.73.3h4.78v14.2c0,.3.12.58.32.78.2.2.48.33.78.33s.58-.13.78-.33c.2-.2.32-.48.32-.78v-14.2h4.78c.28,0,.54-.11.73-.3.19-.18.3-.43.3-.71s-.12-.54-.31-.73c-.19-.19-.45-.31-.73-.31Z"/>
  <path class="cls-1" d="M301.15,66.64c-1.75,0-3.28.73-4.37,1.91-1.11,1.21-1.77,2.88-1.77,4.74v.05c0,1.94.69,3.57,1.81,4.74,1.16,1.21,2.79,1.91,4.58,1.91,1.09,0,1.99-.19,2.77-.53.78-.34,1.44-.82,2.04-1.4.11-.1.19-.21.25-.32.06-.12.09-.25.09-.39,0-.26-.11-.49-.28-.66-.17-.17-.41-.27-.68-.27-.13,0-.25.03-.35.08-.1.05-.19.11-.27.17h0c-.45.42-.95.77-1.53,1.02-.58.25-1.23.4-1.99.4-1.12,0-2.15-.4-2.93-1.14-.7-.67-1.18-1.62-1.33-2.83h8.91c.27,0,.53-.11.72-.3.18-.18.29-.42.29-.71,0-1.77-.59-3.47-1.7-4.68-1.01-1.1-2.44-1.8-4.25-1.8ZM297.19,72.48c.14-1.14.6-2.13,1.28-2.84.69-.72,1.6-1.15,2.64-1.15,1.13,0,2.01.42,2.64,1.09.69.73,1.09,1.77,1.21,2.9h-7.76Z"/>
  <path class="cls-1" d="M288.04,66.64c-1.11,0-2,.28-2.72.74-.58.37-1.05.85-1.43,1.39v-.9c0-.3-.12-.57-.31-.77-.2-.19-.47-.31-.77-.31s-.55.12-.75.32c-.19.2-.31.47-.31.76v10.88c0,.3.12.57.31.77.19.19.46.31.77.31s.57-.12.75-.31c.19-.19.3-.47.3-.77v-6.35c0-1.13.38-2.07,1.01-2.73.64-.67,1.56-1.06,2.61-1.06s1.88.34,2.44.96c.58.63.88,1.55.88,2.69v6.49c0,.3.12.57.31.77.19.19.47.31.77.31s.56-.12.75-.32c.19-.19.31-.46.31-.76v-6.95c0-1.55-.47-2.85-1.34-3.76-.84-.88-2.06-1.39-3.59-1.39Z"/>
  <path class="cls-1" d="M318.92,66.79c-.28,0-.5.09-.67.24-.16.14-.28.34-.36.55l-3.76,9.55-4.23-9.54c-.09-.22-.21-.42-.38-.57-.18-.15-.4-.24-.69-.24s-.57.12-.77.31c-.2.19-.32.46-.32.75,0,.1.01.19.04.29.02.09.06.18.1.27l5.21,11.04-.07.14c-.33.75-.66,1.29-1.05,1.64-.37.34-.8.51-1.35.51-.31,0-.55-.02-.75-.06-.21-.04-.38-.09-.56-.15-.08-.03-.16-.05-.23-.07-.09-.02-.18-.03-.27-.03-.25,0-.49.1-.66.28-.17.17-.27.39-.27.66,0,.23.07.41.17.55.13.18.31.3.49.37h0c.32.11.64.21.98.27.34.06.71.1,1.13.1.98,0,1.78-.25,2.48-.83.69-.57,1.28-1.48,1.83-2.79l4.9-11.69c.02-.08.05-.16.07-.24.02-.09.03-.18.03-.26,0-.29-.12-.56-.31-.75-.19-.19-.46-.31-.75-.31Z"/>
  <path class="cls-1" d="M239.88,62.35c-.3,0-.58.12-.78.33-.2.2-.32.48-.32.78v10.51c0,1.27-.32,2.23-.85,2.89-.57.69-1.38,1.05-2.33,1.05-.76,0-1.38-.16-1.92-.47-.54-.31-1.01-.78-1.46-1.39h0c-.08-.1-.18-.2-.31-.27-.13-.07-.29-.12-.47-.12-.29,0-.56.12-.76.32-.2.2-.32.47-.32.76,0,.14.03.28.08.4.05.13.13.25.22.34.56.76,1.27,1.4,2.14,1.84.78.39,1.69.62,2.76.62.77,0,1.48-.12,2.12-.37.64-.24,1.22-.6,1.71-1.08.51-.51.91-1.16,1.19-1.95.26-.75.4-1.62.4-2.6v-10.49c0-.3-.12-.58-.31-.78-.19-.2-.46-.32-.77-.32Z"/>
  <path class="cls-1" d="M279.14,66.74c-.84,0-1.74.34-2.55.97-.62.48-1.19,1.14-1.63,1.93v-1.77c0-.3-.12-.57-.31-.77-.19-.19-.46-.31-.77-.31s-.55.12-.75.32c-.19.2-.31.47-.31.76v10.88c0,.3.12.57.31.77.19.19.47.31.77.31s.56-.12.75-.31c.19-.2.31-.47.31-.77v-4.26c0-1.67.43-2.94,1.13-3.85.78-1.02,1.91-1.58,3.16-1.73h0c.28-.04.52-.17.68-.36.16-.19.26-.43.26-.72,0-.31-.11-.58-.3-.78-.19-.19-.45-.3-.76-.3Z"/>
  <path class="cls-1" d="M147.02,66.64c-1.76,0-3.28.73-4.37,1.91-1.11,1.21-1.77,2.88-1.77,4.74v.05c0,1.94.69,3.57,1.81,4.74,1.16,1.21,2.79,1.91,4.58,1.91,1.08,0,1.99-.19,2.77-.53.78-.34,1.44-.82,2.05-1.4.11-.1.19-.21.25-.32.06-.12.09-.25.09-.39,0-.26-.11-.49-.28-.66-.17-.17-.41-.27-.68-.27-.13,0-.24.03-.35.08-.1.05-.19.11-.27.17h0c-.45.42-.95.77-1.53,1.02-.58.25-1.23.4-1.99.4-1.12,0-2.15-.4-2.93-1.14-.7-.67-1.18-1.62-1.33-2.83h8.91c.27,0,.53-.11.72-.3.18-.18.29-.42.29-.71,0-1.77-.59-3.47-1.7-4.68-1.01-1.1-2.44-1.8-4.25-1.8ZM143.05,72.48c.14-1.14.6-2.13,1.28-2.84.69-.72,1.6-1.15,2.64-1.15,1.13,0,2.01.42,2.64,1.09.69.73,1.09,1.77,1.21,2.9h-7.76Z"/>
  <path class="cls-1" d="M133.9,66.64c-1.11,0-2,.28-2.72.74-.58.37-1.05.85-1.44,1.39v-6.06c0-.29-.12-.57-.32-.77-.19-.19-.46-.32-.76-.32s-.55.12-.75.32c-.19.2-.31.47-.31.76v16.04c0,.3.12.57.31.77.2.19.47.31.77.31s.57-.12.75-.31c.19-.19.3-.47.3-.77v-6.35c0-1.13.38-2.07,1.01-2.73.64-.67,1.56-1.06,2.61-1.06s1.88.34,2.44.96c.58.63.88,1.55.88,2.69v6.49c0,.3.12.57.31.77.19.19.46.31.77.31s.56-.12.75-.32c.19-.19.31-.46.31-.76v-6.95c0-1.55-.47-2.85-1.34-3.76-.84-.88-2.06-1.39-3.59-1.39Z"/>
  <path class="cls-1" d="M211.33,68.16c-.47-.47-1.06-.83-1.76-1.07-.69-.24-1.49-.35-2.39-.35-.81,0-1.53.08-2.21.23-.68.15-1.31.36-1.94.63-.15.06-.32.19-.43.36-.1.15-.16.33-.16.54,0,.25.11.49.29.66.18.17.42.28.67.28.06,0,.12,0,.19-.02.06-.01.13-.03.2-.06h0c.45-.2.94-.38,1.47-.5.53-.12,1.1-.19,1.72-.19,1.15,0,2.06.29,2.68.85.6.55.92,1.36.92,2.43v.26c-.51-.14-1.02-.26-1.59-.34-.63-.09-1.32-.15-2.13-.15-1.65,0-3.05.38-4.02,1.11-.93.71-1.47,1.74-1.47,3.07v.05c0,1.24.53,2.2,1.34,2.88.92.77,2.2,1.16,3.47,1.16,1.02,0,1.89-.22,2.62-.56.73-.35,1.32-.83,1.78-1.35v.76c0,.28.11.54.3.72.18.18.44.29.73.29s.55-.11.74-.3c.18-.19.29-.45.29-.75v-6.86c0-.81-.11-1.53-.33-2.16-.22-.63-.55-1.16-.99-1.6ZM210.61,74.97c0,.93-.44,1.73-1.15,2.31-.74.6-1.77.95-2.91.95-.85,0-1.64-.24-2.19-.68-.5-.4-.82-.97-.82-1.68v-.05c0-.75.32-1.37.92-1.79.6-.42,1.47-.66,2.6-.66.76,0,1.44.07,2.05.16.56.09,1.07.21,1.5.33v1.11Z"/>
  <path class="cls-1" d="M176.56,70.37h-5.45c-.27,0-.52.11-.7.3-.18.18-.29.43-.29.71s.11.51.29.69c.18.18.43.29.69.29h4.42v4.01c-.59.47-1.35.89-2.2,1.19-.79.27-1.66.44-2.56.44-1.98,0-3.61-.71-4.74-1.9-1.17-1.23-1.83-2.99-1.83-5.01v-.05c0-1.89.68-3.62,1.84-4.87,1.11-1.2,2.66-1.95,4.47-1.95,1.05,0,1.91.15,2.65.42.74.27,1.37.65,1.97,1.1.11.08.21.15.32.19.12.05.24.08.36.08.29,0,.57-.13.76-.33.19-.2.32-.48.32-.78,0-.18-.04-.35-.11-.49-.08-.16-.2-.29-.33-.4-.79-.58-1.6-1.04-2.55-1.35-.95-.32-2.02-.49-3.32-.49-2.51,0-4.62.98-6.12,2.54-1.6,1.65-2.52,3.94-2.52,6.37v.05c0,2.52.88,4.79,2.47,6.4,1.51,1.53,3.65,2.46,6.29,2.46,1.18,0,2.27-.2,3.25-.53,1.14-.38,2.14-.94,2.98-1.55.23-.16.41-.34.53-.56.12-.22.18-.46.18-.72v-5.16c0-.3-.12-.58-.32-.78-.2-.2-.47-.33-.76-.33Z"/>
  <path class="cls-1" d="M194.24,66.64c-1.75,0-3.28.73-4.37,1.91-1.11,1.21-1.77,2.88-1.77,4.74v.05c0,1.94.69,3.57,1.81,4.74,1.16,1.21,2.79,1.91,4.58,1.91,1.08,0,1.99-.19,2.77-.53.78-.34,1.44-.82,2.04-1.4.11-.1.19-.21.25-.32.06-.12.09-.25.09-.39,0-.26-.11-.49-.28-.66-.17-.17-.41-.27-.68-.27-.13,0-.24.03-.35.08-.1.05-.19.11-.27.17h0c-.45.42-.95.77-1.53,1.02-.58.25-1.23.4-1.99.4-1.12,0-2.15-.4-2.93-1.14-.7-.67-1.18-1.62-1.33-2.83h8.91c.27,0,.53-.11.72-.3.18-.18.29-.42.29-.71,0-1.77-.59-3.47-1.7-4.68-1.01-1.1-2.44-1.8-4.25-1.8ZM190.27,72.48c.14-1.14.6-2.13,1.28-2.84.69-.72,1.6-1.15,2.64-1.15,1.13,0,2.01.42,2.64,1.09.69.73,1.09,1.77,1.21,2.9h-7.76Z"/>
  <path class="cls-1" d="M186.79,66.74c-.84,0-1.74.34-2.55.97-.62.48-1.19,1.14-1.63,1.93v-1.77c0-.3-.12-.57-.31-.77-.19-.19-.46-.31-.77-.31s-.55.12-.75.32c-.19.2-.31.47-.31.76v10.88c0,.3.12.57.31.77.19.19.46.31.77.31s.56-.12.75-.31c.19-.2.31-.47.31-.77v-4.26c0-1.67.43-2.94,1.13-3.85.78-1.02,1.91-1.58,3.16-1.73h0c.28-.04.52-.17.68-.36.16-.19.26-.43.26-.72,0-.31-.11-.58-.3-.78-.19-.19-.45-.3-.76-.3Z"/>
</svg>